<svg width="319" height="503" viewBox="0 0 319 503" fill="none" xmlns="http://www.w3.org/2000/svg">
<path d="M122 367.01C139.048 368.115 150.825 371.54 159.191 375.9C152.129 404.018 146.667 425.331 146.269 426.926C146.077 427.693 144.047 434.69 142.613 440.965C141.85 444.307 141.121 447.958 140.687 451.369C140.283 454.535 139.997 458.432 140.675 461.822C141.438 465.641 142.973 471.306 148.008 474.37C149.001 474.975 150.01 475.401 151.006 475.693C144.274 480.848 136.293 485.542 126.878 489.51C68.378 514.161 27.8779 497.192 15.3779 485.359C2.54462 474.358 -14.2219 443.058 21.3779 405.859C56.9779 368.659 97.1219 367.01 122 367.01ZM167.175 381.057C176.207 388.266 179.26 396.412 182.378 401.01C183.812 407.127 184.189 415.187 182.762 424.096L181.629 429.109L181.277 430.148C180.09 433.743 176.437 444.933 172.5 451.058L170.812 453.672C166.868 459.722 162.875 465.245 158.5 466.558L158.039 466.692C153.345 468.019 150.953 467.323 149.5 460.058C148 452.558 154.2 432.31 155 429.109C155.372 427.621 160.468 407.729 167.175 381.057Z" fill="#21005D" fill-opacity="0.847059"/>
<path d="M266.567 1.66868C269.446 -0.479605 271.222 -0.235065 274.461 0.634498C277.7 1.50423 279.017 5.07778 279.827 8.58176C280.637 12.0858 281.308 14.7229 280.76 20.5847C280.212 26.4464 278.786 34.0181 278.5 36.0993C278.214 38.1804 277.379 48.7145 277.938 56.0993C278.498 63.4841 287.33 83.8908 289.5 89.0993C292 95.0993 297 104.099 301.5 120.599C305.629 135.738 308.68 145.846 314.344 179.096C317.103 195.295 319.593 237.071 318.874 252.936C317.506 283.11 317.175 288.226 307.548 335.969C297.866 383.985 289.487 398.992 280.858 415.796C272.23 432.599 265.667 441.442 261.777 444.093C257.887 446.743 255.796 443.882 255.149 438.777C254.503 433.672 256.746 424.078 257.709 422.581C258.672 421.084 266.211 403.258 277.437 373.593C287.091 343.655 295.299 290.165 296.54 252.936C297.781 215.707 291.292 179.628 290.861 176.224C290.517 173.501 289.426 160.51 286 146.599C284.408 140.133 281.849 132.299 276.835 127.309C279.012 126.807 281.254 125.865 283.399 124.257C287.321 121.316 289.636 117.245 290.228 112.747C290.786 108.5 289.745 104.49 288.203 101.219C285.183 94.8137 279.265 89.1142 272.492 86.2624C267.174 84.0233 259.791 81.749 252.272 82.0046C248.383 82.1369 244.336 82.9745 240.586 84.8611L244.64 69.0515C247.963 56.7859 254.694 32.0118 255.034 31.0407C255.375 30.0679 258.584 18.3817 260.146 12.6599C260.327 11.9776 260.833 10.295 261.422 9.01926C262.158 7.42416 263.688 3.81721 266.567 1.66868ZM238.129 99.0993C245 87.5569 259.5 90.5564 269 94.5564L269.443 94.7507C278.73 98.946 285.874 111.15 278 117.056L277.622 117.325C269.627 122.687 257.937 111.167 254 118.099C253.207 119.495 251.605 125.127 249.523 133.345L234.5 109.599L235.622 104.997C236.52 102.488 237.31 100.572 237.965 99.3865L238.129 99.0993Z" fill="#21005D"/>
<path d="M149.5 460.057C151 467.557 153.501 468.057 158.501 466.557C163.501 465.057 168.001 458.057 172.501 451.057C177.001 444.057 181.129 430.442 181.629 429.108L193.501 376.6L198.129 356.01C201.463 341.843 211.429 288.699 212.629 283.099C213.829 277.499 217.129 276.433 218.629 276.599C225.962 276.433 253.001 276.099 255.001 276.099C257.501 276.099 267.001 276.599 269.001 275.599C271.001 274.599 274.501 261.51 274.501 258.51C274.501 256.11 270.834 255.843 269.001 256.01H263.501H228.501C222.901 256.01 222.501 252.677 223.001 251.01C225.334 240.01 250.001 125.142 254.001 118.099C258 111.057 270 123.057 278 117.057C286 111.057 278.5 98.5567 269 94.5568C259.5 90.5568 245 87.5567 238.129 99.0994C231.258 110.642 208.001 210.01 205.501 220.51C203.001 231.01 200.001 250.01 195.001 252.51C191.001 254.51 165.001 255.51 161.501 255.51C159.501 255.343 154.601 255.51 153.001 257.51C150.601 260.71 149.834 272.766 151.001 274.099C151.341 274.488 152.801 275.999 164.001 275.599C175.201 275.199 192.001 273.189 192.001 279.599C178.501 337.433 155.801 425.908 155.001 429.108C154.201 432.308 148 452.557 149.5 460.057Z" fill="#006D62"/>
</svg>
