<svg width="331" height="520" viewBox="0 0 331 520" fill="none" xmlns="http://www.w3.org/2000/svg">
<path d="M154.815 476.411C156.368 484.177 158.957 484.695 164.135 483.142C169.313 481.589 173.973 474.34 178.633 467.091C183.293 459.842 187.568 445.743 188.086 444.362L200.379 389.987L205.172 368.665C208.624 353.995 218.945 298.962 220.188 293.163C221.43 287.364 224.848 286.259 226.401 286.432C233.995 286.259 261.994 285.914 264.066 285.914C266.654 285.914 276.492 286.432 278.563 285.396C280.634 284.361 284.259 270.806 284.259 267.7C284.259 265.214 280.462 264.938 278.563 265.111H272.868H236.624C230.825 265.111 230.41 261.659 230.928 259.933C233.344 248.542 258.888 129.591 263.03 122.298C267.172 115.005 279.598 127.431 287.883 121.218C296.167 115.005 288.4 102.06 278.563 97.9182C268.725 93.776 253.709 90.6693 246.594 102.622C239.479 114.575 215.395 217.476 212.806 228.349C210.217 239.222 207.111 258.897 201.933 261.486C197.791 263.557 170.866 264.593 167.242 264.593C165.171 264.42 160.097 264.593 158.44 266.664C155.955 269.978 155.161 282.462 156.369 283.843C156.72 284.245 158.233 285.811 169.831 285.396C181.429 284.982 198.826 282.9 198.826 289.539C184.846 349.428 161.339 441.048 160.51 444.362C159.682 447.676 153.261 468.644 154.815 476.411Z" fill="black"/>
<path d="M276.043 1.72852C279.024 -0.496249 280.863 -0.243221 284.217 0.657227C287.571 1.55771 288.936 5.25816 289.774 8.88672C290.613 12.5154 291.308 15.2462 290.74 21.3164C290.173 27.3865 288.696 35.2276 288.399 37.3828C288.103 39.5378 287.239 50.4464 287.818 58.0938C288.398 65.741 297.543 86.8726 299.791 92.2666C302.38 98.4799 307.557 107.8 312.217 124.887C316.492 140.563 319.653 151.031 325.518 185.463C328.375 202.237 330.954 245.498 330.209 261.928C328.792 293.174 328.45 298.472 318.48 347.913C308.454 397.635 299.778 413.176 290.843 430.577C281.908 447.978 275.11 457.134 271.082 459.879C267.054 462.624 264.889 459.661 264.22 454.375C263.55 449.088 265.873 439.152 266.87 437.603C267.868 436.052 275.674 417.592 287.298 386.874C297.295 355.871 305.797 300.48 307.082 261.928C308.367 223.375 301.646 186.014 301.2 182.489C300.843 179.669 299.714 166.216 296.166 151.811C294.517 145.115 291.868 137.002 286.676 131.835C288.931 131.314 291.252 130.34 293.474 128.674C297.534 125.628 299.931 121.413 300.544 116.755C301.123 112.357 300.044 108.204 298.447 104.817C295.32 98.1841 289.192 92.2822 282.179 89.3291C276.672 87.0104 269.026 84.6553 261.24 84.9199C257.213 85.0569 253.022 85.9244 249.139 87.8779L253.336 71.5068C256.777 58.8053 263.748 33.1501 264.101 32.1445C264.454 31.136 267.776 19.0353 269.394 13.1104C269.58 12.4039 270.105 10.6611 270.715 9.33984C271.477 7.68804 273.061 3.95342 276.043 1.72852ZM246.593 102.623C253.708 90.6702 268.724 93.7759 278.562 97.918C288.399 102.06 296.166 115.004 287.882 121.218L287.49 121.496C279.211 127.047 267.106 115.119 263.029 122.298C262.208 123.744 260.549 129.576 258.394 138.087L242.836 113.496L244 108.72C244.928 106.126 245.746 104.146 246.423 102.919L246.593 102.623Z" fill="black"/>
<path d="M126.337 380.056C143.991 381.2 156.187 384.747 164.851 389.262C157.538 418.378 151.881 440.448 151.468 442.101C151.27 442.892 149.168 450.14 147.683 456.64C146.892 460.1 146.137 463.881 145.687 467.413C145.269 470.691 144.973 474.726 145.675 478.237C146.466 482.191 148.056 488.058 153.27 491.231C154.299 491.858 155.343 492.3 156.375 492.603C149.404 497.941 141.139 502.802 131.389 506.91C70.8093 532.438 28.8693 514.865 15.9248 502.611C2.6353 491.22 -14.7276 458.807 22.1377 420.285C59.0032 381.763 100.575 380.056 126.337 380.056ZM173.117 394.602C182.471 402.068 185.633 410.504 188.861 415.265C190.343 421.587 190.738 429.914 189.27 439.118L188.085 444.361L187.944 444.765C187.031 447.479 183 460.294 178.632 467.09C173.972 474.339 169.311 481.588 164.134 483.142L163.656 483.28C158.796 484.655 156.318 483.934 154.813 476.41C153.357 469.129 158.91 450.244 160.292 445.182L160.51 444.361C160.895 442.822 166.172 422.223 173.117 394.602Z" fill="black"/>
</svg>
